HIERARCHY
ROOT Hips
{
	OFFSET 0.00000 0.00000 0.00000
	CHANNELS 6 Xposition Yposition Zposition Zrotation Yrotation Xrotation 
	JOINT LHipJoint
	{
		OFFSET 0 0 0
		CHANNELS 3 Zrotation Yrotation Xrotation
		JOINT LeftHip
		{
			OFFSET 1.28366 -1.58472 0.87544
			CHANNELS 3 Zrotation Yrotation Xrotation
			JOINT LeftKnee
			{
				OFFSET 2.18587 -6.00562 0.00000
				CHANNELS 3 Zrotation Yrotation Xrotation
				JOINT LeftAnkle
				{
					OFFSET 2.39085 -6.56880 0.00000
					CHANNELS 3 Zrotation Yrotation Xrotation
					JOINT LeftToe
					{
						OFFSET 0.12003 -0.32979 2.03101
						CHANNELS 3 Zrotation Yrotation Xrotation
						End Site
						{
							OFFSET 0.00000 -0.00000 1.04074
						}
					}
				}
			}
		}
	}
	JOINT RHipJoint
	{
		OFFSET 0 0 0
		CHANNELS 3 Zrotation Yrotation Xrotation
		JOINT RightHip
		{
			OFFSET -1.21795 -1.58472 0.87544
			CHANNELS 3 Zrotation Yrotation Xrotation
			JOINT RightKnee
			{
				OFFSET -2.22714 -6.11902 0.00000
				CHANNELS 3 Zrotation Yrotation Xrotation
				JOINT RightAnkle
				{
					OFFSET -2.40306 -6.60235 0.00000
					CHANNELS 3 Zrotation Yrotation Xrotation
					JOINT RightToe
					{
						OFFSET -0.15519 -0.42640 1.91430
						CHANNELS 3 Zrotation Yrotation Xrotation
						End Site
						{
							OFFSET -0.00000 -0.00000 0.99082
						}
					}
				}
			}
		}
	}
	JOINT lowerback
	{
		OFFSET 0 0 0
		CHANNELS 3 Zrotation Yrotation Xrotation
		JOINT Chest
		{
			OFFSET 0.01180 1.76430 -0.06387
			CHANNELS 3 Zrotation Yrotation Xrotation
			JOINT Chest2
			{
				OFFSET -0.00388 1.74651 0.09536
				CHANNELS 3 Zrotation Yrotation Xrotation
				JOINT lowerneck
				{
					OFFSET 0 0 0
					CHANNELS 3 Zrotation Yrotation Xrotation
					JOINT Neck
					{
						OFFSET 0.04111 1.46174 0.14397
						CHANNELS 3 Zrotation Yrotation Xrotation
						JOINT Head
						{
							OFFSET 0.00502 1.44580 -0.31711
							CHANNELS 3 Zrotation Yrotation Xrotation
							End Site
							{
								OFFSET -0.00395 1.49251 -0.12327
							}
						}
					}
				}
				JOINT LeftCollar
				{
					OFFSET 0 0 0
					CHANNELS 3 Zrotation Yrotation Xrotation
					JOINT LeftShoulder
					{
						OFFSET 2.70917 1.34870 -0.15417
CHANNELS 3 Zrotation Xrotation Yrotation
						JOINT LeftElbow
						{
OFFSET 0 -4.466100 -0.000000
CHANNELS 3 Zrotation Xrotation Yrotation
							JOINT LeftWrist
							{
OFFSET 0 -3.414140 0.000000
CHANNELS 3 Zrotation Xrotation Yrotation
								JOINT lhand
								{
									OFFSET 0 0 0
CHANNELS 3 Zrotation Xrotation Yrotation
									JOINT LFingers
									{
OFFSET 0 -0.328300 0.000000
CHANNELS 3 Zrotation Xrotation Yrotation
										End Site
										{
OFFSET 0 -0.264680 0.000000
										}
									}
								}
								JOINT LThumb
								{
OFFSET 0 0.000000 0.000000
CHANNELS 3 Zrotation Xrotation Yrotation
									End Site
									{
OFFSET 0 -0.268720 0.268720
									}
								}
							}
						}
					}
				}
				JOINT RightCollar
				{
					OFFSET 0 0 0
					CHANNELS 3 Zrotation Yrotation Xrotation
					JOINT RightShoulder
					{
						OFFSET -3.06316 1.13725 -0.10883
CHANNELS 3 Zrotation Xrotation Yrotation
						JOINT RightElbow
						{
OFFSET 0 -4.404310 0.000000
CHANNELS 3 Zrotation Xrotation Yrotation
							JOINT RightWrist
							{
OFFSET 0 -3.046880 0.000000
CHANNELS 3 Zrotation Xrotation Yrotation
								JOINT rhand
								{
									OFFSET 0 0 0
CHANNELS 3 Zrotation Xrotation Yrotation
									JOINT RFingers
									{
OFFSET 0 -0.500490 0.000000
CHANNELS 3 Zrotation Xrotation Yrotation
										End Site
										{
OFFSET 0 -0.403510 0.000000
										}
									}
								}
								JOINT RThumb
								{
OFFSET 0 0.000000 0.000000
CHANNELS 3 Zrotation Xrotation Yrotation
									End Site
									{
OFFSET 0 -0.409670 0.409670
									}
								}
							}
						}
					}
				}
			}
		}
	}
}
MOTION
Frames: 9
Frame Time: 0.008333333333333333
24.780298 14.725407 2.207410 -175.747165 38.830399 -173.033487 0.000000 0.000000 0.000000 -5.280162 -6.246821 -5.833595 3.695852 11.744122 34.832927 1.554361 7.968255 -27.610349 0.170047 2.653038 7.314465 0.000000 0.000000 0.000000 6.047858 -0.306912 -33.771477 -2.495624 -9.828736 28.424986 -0.369935 -16.192645 -26.216836 -0.001333 -0.202671 0.556886 0.569727 0.551923 6.045599 -7.493090 1.170758 -12.794048 -9.514995 0.218598 -17.883235 -9.354343 -14.777351 -9.471378 6.026133 -18.391671 -3.696885 2.443810 -8.770499 1.917276 0.000000 0.000000 0.000000 109.130995 9.236863 -3.302504 15.645792 -25.038057 3.494758 -4.339724 2.868428 -7.134391 0.000000 0.000000 0.000000 -7.125000 0.000000 0.000000 -25.650850 35.951654 -6.226944 0.000000 0.000000 0.000000 -120.161546 -19.280153 -43.698446 -97.906527 -59.753198 -66.841197 -46.851653 -60.996661 -21.245928 0.000000 0.000000 0.000000 7.125000 0.000000 0.000000 -11.035437 0.833403 -11.085269
25.366853 14.764811 2.411393 -176.803409 41.675841 -174.179922 0.000000 0.000000 0.000000 -10.653735 1.333952 -11.816221 5.211099 13.614328 41.720317 1.981154 4.122874 -28.326177 0.004384 -0.397992 -1.093614 0.000000 0.000000 0.000000 8.080609 -1.554045 -36.370340 -3.250141 -11.088930 32.580918 -0.629037 -13.332833 -25.104738 -0.030530 1.125193 -3.093450 -1.033301 0.877237 7.146488 -7.294737 1.294142 -12.812487 -8.468773 0.456900 -18.644075 -9.314973 -14.189769 -10.337956 5.556320 -17.373121 -4.894498 2.368546 -8.204903 1.533182 0.000000 0.000000 0.000000 107.998094 11.824442 -4.000985 14.963919 -24.095755 3.211245 -4.545157 4.760723 -6.772822 0.000000 0.000000 0.000000 -7.125000 0.000000 0.000000 -25.698430 35.610002 -6.478302 0.000000 0.000000 0.000000 -112.603222 -15.897342 -33.147229 -115.663435 -57.352629 -82.026908 -52.705995 -53.404178 -26.012105 0.000000 0.000000 0.000000 7.125000 0.000000 0.000000 -13.023349 -7.989094 -15.075819
25.798767 14.747979 2.606401 -172.814766 42.044640 -172.086322 0.000000 0.000000 0.000000 -14.985242 9.284454 -22.651524 7.291062 15.571945 49.966208 2.357733 1.160950 -29.491069 0.006175 0.475699 1.307137 0.000000 0.000000 0.000000 13.337756 -2.022186 -37.072381 -3.818639 -11.915033 35.432032 -0.949811 -12.291215 -26.613557 -0.059702 1.576674 -4.337064 1.242484 0.887224 8.226139 -5.707735 1.580071 -12.169331 -7.889248 0.334753 -18.448822 -9.281073 -13.876272 -11.377499 4.983649 -16.734809 -5.661878 2.199829 -7.835640 1.342761 0.000000 0.000000 0.000000 105.592571 13.916617 -6.074553 14.047260 -22.802149 2.846411 -5.496152 4.063824 -6.789577 0.000000 0.000000 0.000000 -7.125000 0.000000 0.000000 -26.432511 35.558049 -6.737815 0.000000 0.000000 0.000000 -101.905994 -10.922626 -15.830728 -123.670258 -55.249622 -88.694179 -56.755348 -44.885891 -29.287242 0.000000 0.000000 0.000000 7.125000 0.000000 0.000000 -14.147247 -14.483973 -17.704236
26.158145 14.683815 2.759712 -169.014018 40.578401 -169.950247 0.000000 0.000000 0.000000 -16.923987 9.454187 -27.045193 7.618742 15.831534 51.177606 3.126264 6.214151 -35.982750 1.480228 7.679347 21.748201 0.000000 0.000000 0.000000 18.195603 -4.702197 -38.487326 -4.435798 -12.718316 38.323730 -1.196269 -11.627917 -27.839120 -0.101513 2.053605 -5.653909 3.006749 0.669462 8.345629 -3.695879 1.617966 -11.323338 -6.415381 0.288287 -17.408968 -9.456688 -13.410962 -11.690378 4.185616 -16.081238 -5.267336 2.000590 -7.536691 1.420090 0.000000 0.000000 0.000000 103.854301 15.053470 -11.811404 13.287987 -21.707709 2.558820 -5.941773 2.560125 -7.723981 0.000000 0.000000 0.000000 -7.125000 0.000000 0.000000 -27.071232 36.364693 -6.336957 0.000000 0.000000 0.000000 -90.841343 -3.880446 2.292145 -119.732154 -56.373867 -85.434420 -60.167845 -39.167227 -31.798578 0.000000 0.000000 0.000000 7.125000 0.000000 0.000000 -15.034248 -19.826899 -19.778912
26.525368 14.618911 2.950996 -170.307705 39.855530 -171.017840 0.000000 0.000000 0.000000 -16.101681 9.311977 -26.211798 7.490387 15.731241 50.705399 3.011689 6.008515 -35.284998 0.942240 6.179480 17.306980 0.000000 0.000000 0.000000 17.843606 -4.670687 -40.193823 -5.578632 -14.006681 43.265253 -1.692975 -7.295104 -28.137208 -0.317474 3.619580 -10.008982 -0.406671 0.548972 8.393709 -2.473399 0.953744 -10.694892 -2.873821 0.516839 -16.738059 -9.025185 -12.641732 -10.960337 3.156511 -15.291257 -4.342504 1.692743 -7.244800 1.420708 0.000000 0.000000 0.000000 102.488403 15.825855 -14.279819 13.212789 -21.598261 2.531115 -5.538056 2.632131 -7.990224 0.000000 0.000000 0.000000 -7.125000 0.000000 0.000000 -26.847355 36.634198 -6.075924 0.000000 0.000000 0.000000 -83.962206 -0.285898 14.652155 -99.136157 -59.673651 -67.903083 -61.885771 -31.314348 -32.297302 0.000000 0.000000 0.000000 7.125000 0.000000 0.000000 -15.727905 -21.694731 -21.028624
26.941883 14.608831 3.126396 -174.033694 38.846578 -173.731521 0.000000 0.000000 0.000000 -16.733528 13.751643 -26.282659 7.180893 15.482334 49.555218 2.813505 3.193597 -32.956611 0.283852 3.420121 9.451261 0.000000 0.000000 0.000000 12.574729 1.270574 -38.934589 -7.537527 -15.766297 50.875732 -2.072193 1.888505 -26.737509 -0.957141 6.226452 -17.443883 -4.012663 0.311794 8.186719 -2.879880 0.006912 -10.167403 -1.073906 0.479469 -15.998917 -8.666955 -12.113291 -10.755218 2.129591 -14.809859 -1.445397 1.273434 -7.164801 2.209814 0.000000 0.000000 0.000000 102.914094 15.533170 -14.804148 13.201380 -21.581604 2.526893 -4.748124 2.823632 -8.381812 0.000000 0.000000 0.000000 -7.125000 0.000000 0.000000 -26.363052 37.046948 -5.648543 0.000000 0.000000 0.000000 -81.498296 -0.156803 23.273188 -67.646049 -57.988761 -40.775456 -59.455314 -24.850552 -32.813831 0.000000 0.000000 0.000000 7.125000 0.000000 0.000000 -14.298232 -20.456335 -18.850154
27.400970 14.534498 3.259982 -175.562526 34.085241 -175.153337 0.000000 0.000000 0.000000 -15.108978 13.299683 -26.193411 7.522285 15.756142 50.822671 2.727404 1.748447 -31.909064 0.023620 0.971328 2.670072 0.000000 0.000000 0.000000 8.376436 8.323604 -33.477436 -8.880055 -16.729568 55.673706 -1.777811 11.481911 -24.064406 -0.966175 6.257457 -17.533596 -4.424496 -0.711412 7.650098 -3.234205 -1.447834 -9.439797 -0.898079 -0.200519 -14.738106 -8.520338 -11.705238 -10.630875 0.231796 -14.307977 1.622222 0.599957 -7.090242 3.035566 0.000000 0.000000 0.000000 102.927323 13.635138 -15.000199 13.181405 -21.552411 2.519565 -5.006140 3.186907 -8.087732 0.000000 0.000000 0.000000 -7.125000 0.000000 0.000000 -26.467725 36.762459 -5.880312 0.000000 0.000000 0.000000 -82.716571 -2.208810 30.146213 -39.740386 -47.882564 -18.256614 -53.104507 -14.838520 -31.037328 0.000000 0.000000 0.000000 7.125000 0.000000 0.000000 -11.675103 -14.284743 -14.457035
27.928630 14.411935 3.334109 -174.240728 25.422423 -174.511813 0.000000 0.000000 0.000000 -10.331159 10.288647 -28.351119 8.722665 16.625363 55.125222 2.715721 -1.609798 -30.790958 0.001564 -0.253781 -0.697382 0.000000 0.000000 0.000000 9.977752 11.531656 -24.128732 -6.633292 -15.014060 47.471411 -1.709910 12.721606 -23.773869 -0.606221 4.983198 -13.860681 -2.641223 -2.391459 6.126703 -2.925346 -3.371640 -8.576184 -1.193926 -1.318025 -12.783219 -8.482731 -11.252145 -10.772570 -1.410375 -13.588237 4.502173 0.013666 -6.894892 3.913008 0.000000 0.000000 0.000000 102.728156 10.367959 -16.176978 13.296753 -21.720483 2.562082 -4.933910 3.130741 -7.427587 0.000000 0.000000 0.000000 -7.125000 0.000000 0.000000 -26.200668 36.173479 -6.228661 0.000000 0.000000 0.000000 -83.536205 -4.063336 30.842280 -22.287499 -33.284288 -6.750044 -41.445530 0.715732 -28.001414 0.000000 0.000000 0.000000 7.125000 0.000000 0.000000 -6.289324 -5.189337 -6.877882
28.329743 14.320169 3.436844 -171.584726 17.996759 -173.229255 0.000000 0.000000 0.000000 -5.290433 9.399671 -34.553861 10.746638 17.807211 61.953821 2.176373 -3.779949 -26.990307 0.010165 -0.638787 -1.755457 0.000000 0.000000 0.000000 14.805010 7.187881 -23.991050 -6.462874 -14.862251 46.811996 -1.999649 8.184818 -25.382969 -1.085446 6.620500 -18.596223 0.338683 -3.111499 6.592862 -1.963237 -3.942343 -8.397251 -1.680203 -1.837531 -13.008462 -7.245022 -10.538188 -10.498767 -3.811858 -12.573569 6.408656 -0.929488 -6.534017 4.231206 0.000000 0.000000 0.000000 101.316844 6.273143 -14.949965 13.395185 -21.863456 2.598623 -4.111171 3.879884 -6.785982 0.000000 0.000000 0.000000 -7.125000 0.000000 0.000000 -25.368467 35.652030 -6.350499 0.000000 0.000000 0.000000 -84.047038 -3.778100 24.991261 -12.731667 -20.888959 -2.359376 -26.145764 13.505283 -21.141975 0.000000 0.000000 0.000000 7.125000 0.000000 0.000000 1.587160 6.671016 1.379701
